<?xml version="1.0" encoding="UTF-8" standalone="no"?>
<!DOCTYPE svg PUBLIC "-//W3C//DTD SVG 1.1//EN" "http://www.w3.org/Graphics/SVG/1.1/DTD/svg11.dtd">
<svg width="100%" height="100%" viewBox="0 0 275 350" version="1.1" xmlns="http://www.w3.org/2000/svg" xmlns:xlink="http://www.w3.org/1999/xlink" xml:space="preserve" xmlns:serif="http://www.serif.com/" style="fill-rule:evenodd;clip-rule:evenodd;stroke-linejoin:round;stroke-miterlimit:2;">
    <path d="M58.088,99.789C53.842,98.184 49.506,95.815 45.118,92.514C24.988,77.374 14.625,52.903 12.358,36.217C11.144,27.289 12.469,20.221 14.79,16.553C17.894,11.649 25.334,6.789 36.037,4.124C56.579,-0.991 90.092,0.733 117.619,18.27C123.037,21.721 134.065,28.87 137.036,41.031C140.007,28.87 151.035,21.721 156.453,18.27C183.98,0.733 217.493,-0.991 238.035,4.124C248.738,6.789 256.178,11.649 259.282,16.553C261.603,20.221 262.928,27.289 261.714,36.217C259.447,52.903 249.084,77.374 228.954,92.514C224.566,95.815 220.23,98.184 215.984,99.789C235.176,107.364 248.768,126.082 248.768,147.949C248.768,150.793 248.538,153.585 248.096,156.302C263.873,168.25 274.072,187.182 274.072,208.477C274.072,229.546 264.09,248.301 248.604,260.264C248.713,261.631 248.768,263.012 248.768,264.406C248.768,292.968 225.579,316.156 197.017,316.156C196.117,316.156 195.223,316.133 194.33,316.088C183.187,336.26 161.696,349.937 137.036,349.937C112.376,349.937 90.885,336.26 79.742,316.088C78.849,316.133 77.955,316.156 77.055,316.156C48.493,316.156 25.304,292.968 25.304,264.406C25.304,263.012 25.359,261.631 25.468,260.264C9.982,248.301 0,229.546 0,208.477C0,187.182 10.199,168.25 25.976,156.302C25.534,153.585 25.304,150.793 25.304,147.949C25.304,126.082 38.896,107.364 58.088,99.789ZM137.036,259.49C147.063,259.49 155.204,267.631 155.204,277.659C155.204,287.686 147.063,295.827 137.036,295.827C127.009,295.827 118.868,287.686 118.868,277.659C118.868,267.631 127.009,259.49 137.036,259.49ZM193.559,254.78C201.73,254.78 208.363,261.413 208.363,269.584C208.363,277.754 201.73,284.388 193.559,284.388C185.389,284.388 178.756,277.754 178.756,269.584C178.756,261.413 185.389,254.78 193.559,254.78ZM80.513,254.78C72.342,254.78 65.709,261.413 65.709,269.584C65.709,277.754 72.342,284.388 80.513,284.388C88.683,284.388 95.316,277.754 95.316,269.584C95.316,261.413 88.683,254.78 80.513,254.78ZM209.036,148.462C209.036,142.892 204.513,138.369 198.943,138.369L75.129,138.369C69.559,138.369 65.036,142.892 65.036,148.462L65.036,229.21C65.036,234.781 69.559,239.303 75.129,239.303L198.943,239.303C204.513,239.303 209.036,234.781 209.036,229.21L209.036,148.462ZM162.635,75.447C172.085,84.291 196.851,106.662 224.151,86.128C250.191,66.543 258.143,29.694 252.53,20.826C244.669,8.405 197.076,1.864 160.746,25.009C153.259,29.779 136.086,45.851 156.766,69.482C172.681,55.89 195.703,46.097 221.506,37.76C195.493,50.616 173.291,63.046 162.635,75.447ZM117.306,69.482C101.391,55.89 78.369,46.097 52.566,37.76C78.579,50.616 100.781,63.046 111.437,75.447C101.987,84.291 77.221,106.662 49.921,86.128C23.881,66.543 15.929,29.694 21.542,20.826C29.403,8.405 76.996,1.864 113.326,25.009C120.813,29.779 137.986,45.851 117.306,69.482Z" style="fill:white;"/>
</svg>
